<?xml version="1.0" encoding="UTF-8" standalone="no"?>
<!-- Created with Inkscape (http://www.inkscape.org/) -->

<svg
   width="1080"
   height="1080"
   version="1.1"
   viewBox="0 0 285.75 285.75"
   id="svg12"
   sodipodi:docname="Youtube channel logo v3_clean.svg"
   inkscape:version="1.4.3 (1:1.4.3+202512261035+0d15f75042)"
   xmlns:inkscape="http://www.inkscape.org/namespaces/inkscape"
   xmlns:sodipodi="http://sodipodi.sourceforge.net/DTD/sodipodi-0.dtd"
   xmlns="http://www.w3.org/2000/svg"
   xmlns:svg="http://www.w3.org/2000/svg">
  <defs
     id="defs12" />
  <sodipodi:namedview
     id="namedview12"
     pagecolor="#ffffff"
     bordercolor="#666666"
     borderopacity="1.0"
     inkscape:showpageshadow="2"
     inkscape:pageopacity="0.0"
     inkscape:pagecheckerboard="0"
     inkscape:deskcolor="#d1d1d1"
     inkscape:zoom="0.434085"
     inkscape:cx="287.96204"
     inkscape:cy="597.80918"
     inkscape:window-width="1536"
     inkscape:window-height="888"
     inkscape:window-x="0"
     inkscape:window-y="0"
     inkscape:window-maximized="1"
     inkscape:current-layer="g13" />
  <g
     id="g13"
     inkscape:label="Logo">
    <circle
       cx="142.88"
       cy="142.88"
       r="136.88"
       stroke="#1beea1"
       stroke-dashoffset="7.5591"
       stroke-linecap="round"
       stroke-linejoin="round"
       stroke-miterlimit="8"
       stroke-width="12"
       id="circle1" />
    <path
       d="m 156.0359,179.70157 v -55.76172 q 0,-1.46484 1.36719,-1.85547 1.46485,-0.39062 2.14844,0.87891 l 33.59375,57.61718 q 0.29297,0.48829 0.68359,0.78125 0.48828,0.19532 0.97657,0.19532 h 12.10937 q 0.78125,0 1.26953,-0.48828 0.58594,-0.58594 0.58594,-1.36719 V 94.545319 q 0,-0.78125 -0.58594,-1.269532 -0.48828,-0.585937 -1.26953,-0.585937 h -11.32812 q -0.78125,0 -1.36719,0.585937 -0.48828,0.488282 -0.48828,1.269532 v 55.761721 q 0,1.46484 -1.46485,1.85547 -1.36718,0.39062 -2.05078,-0.87891 L 156.62184,93.568756 q -0.29297,-0.390625 -0.78125,-0.585937 -0.39062,-0.292969 -0.8789,-0.292969 h -12.10938 q -0.78125,0 -1.36719,0.585937 -0.48828,0.488282 -0.48828,1.269532 v 85.156251 q 0,0.78125 0.48828,1.36719 0.58594,0.48828 1.36719,0.48828 h 11.32813 q 0.78125,0 1.26953,-0.48828 0.58593,-0.58594 0.58593,-1.36719 z"
       id="text1"
       style="font-size:100px;line-height:1.25;font-family:tars-mono-smooth;text-align:center;text-anchor:middle;fill:#1beea2;stroke-width:0.26458"
       transform="scale(1 .99998)"
       aria-label="N" />
    <g
       fill="#fff"
       id="g3">
      <path
         d="m204.95 88.098-23.677-14.723-47.156-5.9688h-40.091l0.0061 11.656-13.83 0.09962 12.972 9.0185c43.503-0.34713 68.273-0.31536 111.78-0.0824z"
         style="paint-order:stroke fill markers"
         id="path1" />
      <path
         d="m205.25 189.38-23.677 14.723-47.156 5.9688h-40.091l7e-3 -11.656-13.83-0.0996 12.972-9.0185c43.503 0.34709 68.273 0.31537 111.78 0.0823z"
         style="paint-order:stroke fill markers"
         id="path2" />
      <rect
         x="98.985"
         y="67.76"
         width="22.683"
         height="217.99"
         rx="0"
         ry="0"
         style="paint-order:stroke fill markers"
         id="rect2" />
      <rect
         x="89.924"
         y="195.53"
         width="41.784"
         height="66.452"
         ry="0"
         style="paint-order:stroke fill markers"
         id="rect3" />
    </g>
    <g
       fill="none"
       stroke="#000"
       stroke-width="1.1644"
       id="g12">
      <path
         transform="matrix(1.7177 0 0 1.7176 -96.405 -122.75)"
         d="m113.75 127.3h5.3284"
         id="path3" />
      <path
         transform="matrix(1.7177 0 0 1.7176 -96.405 -81.853)"
         d="m113.75 127.3h5.3284"
         id="path4" />
      <path
         transform="matrix(1.7177 0 0 1.7176 -96.405 -61.402)"
         d="m113.75 127.3h5.3284"
         id="path5" />
      <path
         transform="matrix(1.7177 0 0 1.7176 -96.405 -40.952)"
         d="m113.75 127.3h5.3284"
         id="path6" />
      <path
         transform="matrix(1.7177 0 0 1.7176 -96.405 -102.3)"
         d="m113.75 127.3h5.3284"
         id="path11" />
    </g>
    <ellipse
       cx="131.71"
       cy="261.98"
       rx="10.041"
       ry="9.8817"
       fill="#fff"
       stroke-dashoffset="7.5591"
       stroke-linecap="round"
       stroke-linejoin="round"
       stroke-miterlimit="8"
       stroke-width="2"
       style="paint-order:stroke fill markers"
       id="ellipse12" />
  </g>
</svg>
